<svg width="1879" height="440" viewBox="0 0 1879 440" fill="none" xmlns="http://www.w3.org/2000/svg">
<path d="M24.0003 122.01C24.0003 122.01 22.9821 169.142 121.095 191.966C188.955 203.12 236.491 197.912 266.038 177.671C291.816 160.026 304.075 130.435 282.323 94.6291C250.494 41.7336 199.845 70.9764 200.713 70.1435C148.734 101.721 125.423 181.243 117.525 206.199C109.695 231.267 83.6289 334.91 166.395 362.053C227.747 382.353 268.745 319.879 268.745 319.879" stroke="#FF385C" stroke-width="48" stroke-linejoin="round"/>
<path d="M381.996 385.28C374.889 385.28 368.736 383.2 363.536 379.04C358.336 374.88 353.829 369.767 350.016 363.7C346.202 357.633 342.822 351.74 339.876 346.02C334.502 335.1 329.389 323.14 324.536 310.14C319.682 297.14 315.436 283.62 311.796 269.58C308.156 255.54 305.382 241.673 303.476 227.98L350.536 221.22C351.922 237.34 354.089 252.507 357.036 266.72C359.982 280.933 363.449 293.587 367.436 304.68C371.422 315.773 375.496 324.787 379.656 331.72C380.522 332.933 381.302 334.147 381.996 335.36C382.862 336.573 383.296 337.18 383.296 337.18C383.642 337.18 385.029 335.36 387.456 331.72C395.082 318.373 402.189 302.773 408.776 284.92C415.362 267.067 421.082 245.487 425.936 220.18L471.696 229.28C467.189 245.573 463.029 259.787 459.216 271.92C455.402 283.88 451.676 294.367 448.036 303.38C444.396 312.393 440.756 320.54 437.116 327.82C433.476 334.927 429.662 341.86 425.676 348.62C423.076 353.3 419.696 358.5 415.536 364.22C411.549 369.94 406.782 374.88 401.236 379.04C395.689 383.2 389.276 385.28 381.996 385.28ZM571.247 385.8C554.607 385.8 539.96 382.507 527.307 375.92C514.827 369.507 505.034 360.493 497.927 348.88C490.994 337.267 487.527 323.833 487.527 308.58C487.527 299.393 489.087 289.773 492.207 279.72C495.327 269.493 500.354 259.96 507.287 251.12C514.22 242.28 523.32 235.087 534.587 229.54C546.027 223.993 559.894 221.22 576.187 221.22C587.974 221.22 597.854 222.52 605.827 225.12C613.974 227.72 620.56 231.1 625.587 235.26C630.787 239.42 634.687 243.84 637.287 248.52C640.06 253.2 641.88 257.707 642.747 262.04C643.787 266.2 644.307 269.667 644.307 272.44C644.307 289.253 637.2 302.253 622.987 311.44C608.947 320.453 589.014 324.96 563.187 324.96C557.294 324.96 551.66 324.7 546.287 324.18C541.087 323.66 536.234 323.053 531.727 322.36C535.02 331.027 540.48 337.44 548.107 341.6C555.734 345.587 563.62 347.58 571.767 347.58C583.554 347.58 593.954 345.5 602.967 341.34C611.98 337.007 620.474 330.42 628.447 321.58L651.587 354.86C646.04 359.367 639.8 364.047 632.867 368.9C626.107 373.753 617.787 377.74 607.907 380.86C598.027 384.153 585.807 385.8 571.247 385.8ZM576.967 260.22C566.74 260.22 557.727 262.82 549.927 268.02C542.127 273.22 536.407 280.067 532.767 288.56C537.1 289.253 541.347 289.86 545.507 290.38C549.84 290.727 554.087 290.9 558.247 290.9C562.06 290.9 566.394 290.553 571.247 289.86C576.274 289.167 581.127 288.127 585.807 286.74C590.66 285.353 594.647 283.62 597.767 281.54C600.887 279.287 602.447 276.687 602.447 273.74C602.447 272.353 601.754 270.62 600.367 268.54C598.98 266.46 596.467 264.553 592.827 262.82C589.187 261.087 583.9 260.22 576.967 260.22ZM673.811 383.72C673.291 368.467 672.858 354.34 672.511 341.34C672.338 328.34 672.251 315.513 672.251 302.86C672.251 290.207 672.338 277.553 672.511 264.9C672.858 252.073 673.378 238.38 674.071 223.82H718.011C717.318 231.62 716.711 239.507 716.191 247.48C722.084 240.027 729.104 233.873 737.251 229.02C745.398 223.993 755.018 221.48 766.111 221.48C777.031 221.48 785.958 223.3 792.891 226.94C799.998 230.58 805.544 235.607 809.531 242.02C813.691 248.433 816.638 255.8 818.371 264.12C820.278 272.267 821.491 281.107 822.011 290.64C822.531 300 822.791 309.447 822.791 318.98C822.791 329.38 822.618 339.347 822.271 348.88C821.924 358.413 821.578 366.387 821.231 372.8C820.884 379.213 820.624 383.027 820.451 384.24H776.771C777.118 377.133 777.464 369.593 777.811 361.62C778.158 353.473 778.504 345.5 778.851 337.7C779.198 329.727 779.371 322.533 779.371 316.12C779.371 279.2 773.391 260.74 761.431 260.74C751.551 260.74 742.538 265.073 734.391 273.74C726.418 282.233 719.744 292.98 714.371 305.98C714.371 307.713 714.371 309.447 714.371 311.18C714.371 319.5 714.371 328.167 714.371 337.18C714.544 346.02 714.718 354.513 714.891 362.66C715.238 370.633 715.498 377.567 715.671 383.46L673.811 383.72ZM926.196 385.54C915.796 385.54 907.562 383.287 901.496 378.78C895.429 374.447 891.009 368.38 888.236 360.58C885.462 352.78 883.642 343.853 882.776 333.8C882.082 323.747 881.736 313.173 881.736 302.08C881.736 290.64 882.169 278.767 883.036 266.46C871.422 268.02 860.242 270.013 849.496 272.44L841.436 231.62C855.822 227.807 871.162 225.033 887.456 223.3C888.669 214.46 889.969 205.187 891.356 195.48C892.742 185.6 894.302 175.2 896.036 164.28L940.756 168.18C938.676 177.193 936.856 186.207 935.296 195.22C933.736 204.06 932.349 212.64 931.136 220.96C940.842 220.96 949.942 221.22 958.436 221.74C967.102 222.087 975.076 222.78 982.356 223.82L977.156 264.64C971.089 263.947 964.762 263.513 958.176 263.34C951.762 262.993 945.262 262.82 938.676 262.82C934.689 262.82 930.702 262.907 926.716 263.08C925.676 275.733 924.982 286.567 924.636 295.58C924.462 304.593 924.376 311.007 924.376 314.82C924.376 324.353 924.896 331.2 925.936 335.36C927.149 339.52 929.056 341.6 931.656 341.6C934.602 341.6 937.896 340.647 941.536 338.74C945.176 336.66 948.729 333.887 952.196 330.42C955.836 326.953 958.869 323.227 961.296 319.24L981.316 361.1C964.156 377.393 945.782 385.54 926.196 385.54ZM1078.01 386.32C1064.15 386.32 1052.01 384.067 1041.61 379.56C1031.39 375.053 1022.89 368.9 1016.13 361.1C1009.37 353.127 1004.35 344.027 1001.05 333.8C997.76 323.573 996.113 312.827 996.113 301.56C996.113 290.12 998.107 279.547 1002.09 269.84C1006.25 259.96 1011.89 251.38 1018.99 244.1C1026.27 236.82 1034.77 231.187 1044.47 227.2C1054.18 223.04 1064.75 220.96 1076.19 220.96C1088.15 220.96 1099.25 223.04 1109.47 227.2C1119.7 231.36 1128.63 237.167 1136.25 244.62C1143.88 252.073 1149.77 260.827 1153.93 270.88C1158.27 280.933 1160.43 291.853 1160.43 303.64C1160.43 329.813 1153.24 350.18 1138.85 364.74C1124.47 379.127 1104.19 386.32 1078.01 386.32ZM1077.75 344.2C1090.41 344.2 1100.03 340.647 1106.61 333.54C1113.37 326.433 1116.75 316.207 1116.75 302.86C1116.75 290.9 1113.11 281.28 1105.83 274C1098.55 266.72 1089.02 263.08 1077.23 263.08C1070.13 263.08 1063.63 264.987 1057.73 268.8C1051.84 272.44 1047.07 277.38 1043.43 283.62C1039.97 289.687 1038.23 296.447 1038.23 303.9C1038.23 310.487 1039.53 316.9 1042.13 323.14C1044.91 329.38 1049.24 334.493 1055.13 338.48C1061.03 342.293 1068.57 344.2 1077.75 344.2ZM1257.25 386.58C1245.47 386.58 1234.55 385.193 1224.49 382.42C1214.44 379.647 1205.34 376.093 1197.19 371.76C1189.05 367.427 1181.77 362.833 1175.35 357.98L1198.75 320.28C1206.03 327.04 1213.05 332.24 1219.81 335.88C1226.57 339.52 1233.59 342.033 1240.87 343.42C1248.33 344.807 1256.39 345.5 1265.05 345.5C1272.51 345.5 1278.49 344.547 1282.99 342.64C1287.5 340.56 1289.75 337.96 1289.75 334.84C1289.75 332.24 1287.59 330.247 1283.25 328.86C1278.92 327.3 1273.37 326 1266.61 324.96C1259.85 323.747 1252.75 322.273 1245.29 320.54C1234.72 317.767 1224.84 314.56 1215.65 310.92C1206.47 307.28 1199.01 302.34 1193.29 296.1C1187.75 289.86 1184.97 281.54 1184.97 271.14C1184.97 262.82 1186.97 255.54 1190.95 249.3C1194.94 242.887 1200.23 237.6 1206.81 233.44C1213.57 229.107 1221.2 225.9 1229.69 223.82C1238.19 221.74 1246.94 220.7 1255.95 220.7C1271.55 220.7 1284.99 222.607 1296.25 226.42C1307.69 230.06 1318.61 234.913 1329.01 240.98L1305.35 276.86C1300.15 273.22 1294.17 270.1 1287.41 267.5C1280.83 264.727 1274.15 262.647 1267.39 261.26C1260.81 259.7 1254.65 258.92 1248.93 258.92C1242.69 258.92 1237.75 259.873 1234.11 261.78C1230.65 263.687 1228.91 266.373 1228.91 269.84C1228.91 271.92 1231.08 273.913 1235.41 275.82C1239.92 277.553 1248.41 279.893 1260.89 282.84C1268.35 284.573 1276.23 286.393 1284.55 288.3C1292.87 290.033 1300.67 292.547 1307.95 295.84C1315.41 298.96 1321.39 303.553 1325.89 309.62C1330.57 315.513 1332.91 323.4 1332.91 333.28C1332.91 349.92 1326.24 362.92 1312.89 372.28C1299.55 381.813 1281 386.58 1257.25 386.58Z" fill="#FF385C"/>
<path d="M1410.68 386.32C1396.29 386.32 1384.07 375.14 1374.02 352.78C1370.55 344.807 1367.52 336.053 1364.92 326.52C1362.32 316.987 1360.07 307.28 1358.16 297.4C1356.43 287.52 1354.95 278.073 1353.74 269.06C1352.7 259.873 1351.83 251.813 1351.14 244.88C1350.62 237.773 1350.19 232.4 1349.84 228.76L1392.48 218.88C1394.56 258.227 1397.68 288.127 1401.84 308.58C1406.17 329.033 1409.47 339.26 1411.72 339.26C1412.93 339.26 1414.41 336.833 1416.14 331.98C1418.05 327.127 1420.13 320.713 1422.38 312.74C1424.63 304.593 1426.8 295.667 1428.88 285.96C1430.96 276.253 1432.78 266.46 1434.34 256.58C1432.26 243.927 1430.87 233.873 1430.18 226.42L1474.12 224.86V227.98C1474.12 235.087 1474.64 243.407 1475.68 252.94C1476.72 262.473 1478.02 272.353 1479.58 282.58C1481.14 292.633 1482.79 301.993 1484.52 310.66C1486.43 319.327 1488.25 326.347 1489.98 331.72C1491.71 337.093 1493.19 339.78 1494.4 339.78C1495.44 339.78 1496.91 337.44 1498.82 332.76C1500.73 328.08 1502.81 321.667 1505.06 313.52C1507.49 305.373 1509.91 296.1 1512.34 285.7C1514.77 275.127 1517.11 264.033 1519.36 252.42C1521.61 240.633 1523.43 228.933 1524.82 217.32L1567.72 226.42C1564.77 242.887 1561.22 259.267 1557.06 275.56C1553.07 291.68 1548.83 306.673 1544.32 320.54C1539.81 334.233 1535.39 345.76 1531.06 355.12C1521.35 375.747 1509.31 386.06 1494.92 386.06C1490.24 386.06 1484.87 384.587 1478.8 381.64C1472.91 378.867 1467.45 372.973 1462.42 363.96C1460.69 360.667 1458.95 356.68 1457.22 352C1455.49 347.32 1453.84 342.12 1452.28 336.4C1450.2 342.813 1448.12 348.533 1446.04 353.56C1436.85 375.4 1425.07 386.32 1410.68 386.32ZM1588.57 197.04C1588.57 195.48 1588.48 193.92 1588.31 192.36C1588.31 190.627 1588.31 188.72 1588.31 186.64C1588.31 181.093 1588.48 175.2 1588.83 168.96C1589.17 162.72 1589.52 157.433 1589.87 153.1L1636.15 153.88C1635.63 159.773 1635.02 166.447 1634.33 173.9C1633.81 181.353 1633.46 189.067 1633.29 197.04H1588.57ZM1587.53 383.2C1587.01 372.453 1586.66 361.013 1586.49 348.88C1586.31 336.573 1586.23 324.267 1586.23 311.96C1586.23 295.84 1586.4 280.153 1586.75 264.9C1587.09 249.647 1587.53 235.78 1588.05 223.3L1632.77 223.04C1632.07 231.013 1631.64 240.893 1631.47 252.68C1631.29 264.293 1631.21 276.513 1631.21 289.34C1631.21 301.993 1631.29 314.473 1631.47 326.78C1631.64 339.087 1631.81 350.267 1631.99 360.32C1632.33 370.2 1632.59 377.827 1632.77 383.2H1587.53ZM1659.72 383.98C1659.03 375.66 1658.42 365 1657.9 352C1657.56 339 1657.38 324.873 1657.38 309.62C1657.38 296.1 1657.47 282.147 1657.64 267.76C1657.99 253.373 1658.42 239.247 1658.94 225.38C1659.64 211.34 1660.33 198.253 1661.02 186.12C1661.89 173.813 1662.84 163.067 1663.88 153.88L1709.12 157C1706.7 174.68 1704.79 192.62 1703.4 210.82C1702.19 228.847 1701.41 247.22 1701.06 265.94C1710.77 259.18 1722.04 252.073 1734.86 244.62C1747.86 236.993 1763.46 228.413 1781.66 218.88L1806.1 259.7C1787.38 265.593 1770.83 272.353 1756.44 279.98C1742.06 287.433 1730.27 294.973 1721.08 302.6C1719.35 303.813 1718.22 304.68 1717.7 305.2C1717.18 305.72 1716.92 306.067 1716.92 306.24C1716.92 307.28 1719.78 309.187 1725.5 311.96C1733.13 315.947 1741.02 319.847 1749.16 323.66C1757.31 327.473 1766.41 331.373 1776.46 335.36C1786.52 339.173 1798.04 343.247 1811.04 347.58L1793.1 386.06C1777.33 381.38 1761.56 375.487 1745.78 368.38C1730.01 361.273 1715.71 354.08 1702.88 346.8C1703.06 352.693 1703.32 358.673 1703.66 364.74C1704.18 370.807 1704.62 376.873 1704.96 382.94L1659.72 383.98ZM1821.15 197.04C1821.15 195.48 1821.06 193.92 1820.89 192.36C1820.89 190.627 1820.89 188.72 1820.89 186.64C1820.89 181.093 1821.06 175.2 1821.41 168.96C1821.75 162.72 1822.1 157.433 1822.45 153.1L1868.73 153.88C1868.21 159.773 1867.6 166.447 1866.91 173.9C1866.39 181.353 1866.04 189.067 1865.87 197.04H1821.15ZM1820.11 383.2C1819.59 372.453 1819.24 361.013 1819.07 348.88C1818.89 336.573 1818.81 324.267 1818.81 311.96C1818.81 295.84 1818.98 280.153 1819.33 264.9C1819.67 249.647 1820.11 235.78 1820.63 223.3L1865.35 223.04C1864.65 231.013 1864.22 240.893 1864.05 252.68C1863.87 264.293 1863.79 276.513 1863.79 289.34C1863.79 301.993 1863.87 314.473 1864.05 326.78C1864.22 339.087 1864.39 350.267 1864.57 360.32C1864.91 370.2 1865.17 377.827 1865.35 383.2H1820.11Z" fill="black"/>
</svg>
