<svg width="293" height="107" viewBox="0 0 293 107" fill="none" xmlns="http://www.w3.org/2000/svg">
<g clip-path="url(#clip0_2327_20)">
<path d="M124.037 46.2992C125.316 45.7065 126.306 44.8928 126.974 43.8816C127.642 42.8704 127.979 41.7197 127.979 40.4644C127.979 39.3679 127.712 38.3877 127.19 37.5431C126.669 36.7062 125.811 35.9623 124.636 35.3424C123.485 34.7303 121.905 34.2227 119.942 33.8314C118.566 33.5524 117.515 33.2619 116.812 32.9713C116.151 32.7001 115.711 32.4017 115.502 32.0802C115.29 31.7547 115.185 31.3983 115.185 30.9953C115.185 30.3715 115.514 29.9066 116.19 29.5734C116.932 29.2092 117.855 29.0232 118.941 29.0232C119.888 29.0232 120.73 29.1356 121.449 29.3603C122.148 29.5773 122.813 29.9841 123.423 30.573C123.856 30.9798 124.397 31.2433 125.027 31.3595C125.683 31.4796 126.263 31.3711 126.761 31.0263C127.256 30.6544 127.519 30.1856 127.554 29.6315C127.585 29.0891 127.387 28.5699 126.974 28.1011C126.166 27.1015 125.061 26.3073 123.694 25.7455C122.337 25.1876 120.769 24.9009 119.022 24.9009C117.67 24.9009 116.348 25.1217 115.104 25.5634C113.841 26.009 112.786 26.6947 111.975 27.6013C111.144 28.5312 110.723 29.7129 110.723 31.1154C110.723 32.7156 111.356 34.0832 112.604 35.1836C113.821 36.2568 115.788 37.0704 118.458 37.5973C120.421 37.9499 121.777 38.4032 122.5 38.9417C123.18 39.4493 123.5 40.0227 123.477 40.693C123.454 41.3632 123.106 41.8979 122.407 42.3357C121.673 42.7929 120.575 43.0254 119.142 43.0254C118.002 43.0254 116.955 42.82 116.028 42.4093C115.104 42.0025 114.428 41.5647 114.015 41.1037C113.601 40.6581 113.095 40.3946 112.515 40.321C111.92 40.2474 111.322 40.445 110.742 40.9138C110.232 41.3051 109.934 41.8204 109.857 42.4403C109.78 43.0719 109.973 43.6414 110.437 44.1334C111.322 45.0207 112.573 45.7607 114.154 46.3341C115.722 46.9037 117.453 47.1904 119.3 47.1904C121.147 47.1904 122.774 46.892 124.045 46.3031L124.037 46.2992Z" fill="#2F455C"/>
<path d="M135.034 25.052C134.377 25.052 133.825 25.2651 133.388 25.6913C132.947 26.1175 132.723 26.6831 132.723 27.3689V44.7146C132.723 45.3733 132.948 45.9312 133.384 46.369C133.821 46.8068 134.377 47.0315 135.034 47.0315C135.691 47.0315 136.282 46.8068 136.707 46.3651C137.128 45.9273 137.345 45.3733 137.345 44.7146V27.3689C137.345 26.6831 137.128 26.1213 136.703 25.6952C136.278 25.269 135.714 25.052 135.034 25.052Z" fill="#2F455C"/>
<path d="M135.034 22.2392C135.818 22.2392 136.506 21.9525 137.074 21.3829C137.642 20.8134 137.928 20.1276 137.928 19.3372C137.928 18.5469 137.642 17.8611 137.074 17.2915C136.506 16.722 135.818 16.4353 135.034 16.4353C134.25 16.4353 133.562 16.722 132.994 17.2915C132.426 17.8611 132.14 18.5469 132.14 19.3372C132.14 20.1276 132.426 20.8134 132.994 21.3829C133.562 21.9525 134.25 22.2392 135.034 22.2392Z" fill="#2F455C"/>
<path d="M145.034 47.0315C145.772 47.0315 146.34 46.8262 146.726 46.4233C147.109 46.0242 147.302 45.4624 147.302 44.7534V33.3704C147.302 32.2545 147.646 31.3596 148.353 30.6389C149.068 29.9105 150.064 29.403 151.316 29.1318C152.588 28.8567 154.044 28.8838 155.644 29.2093C156.022 29.2984 156.382 29.31 156.71 29.2519C157.054 29.1899 157.359 29.0388 157.626 28.8024C157.896 28.5584 158.082 28.2174 158.175 27.799C158.325 27.2139 158.271 26.3654 157.162 25.6293C156.347 25.0869 155.114 24.8157 153.503 24.8157C151.892 24.8157 150.408 25.1954 149.068 25.9509C148.415 26.3151 147.823 26.749 147.302 27.2411C147.286 26.5475 147.093 26.0051 146.722 25.6332C146.336 25.2457 145.768 25.0481 145.034 25.0481C144.3 25.0481 143.762 25.2496 143.364 25.6525C142.967 26.0516 142.762 26.6173 142.762 27.3263V44.7495C142.762 45.4895 142.967 46.0629 143.368 46.4465C143.766 46.8301 144.327 47.0238 145.034 47.0238V47.0315Z" fill="#2F455C"/>
<path d="M169.643 45.5282C170.141 46.5007 170.867 46.9928 171.799 46.9928C172.73 46.9928 173.441 46.493 173.885 45.5166L182.127 28.0934C182.37 27.5742 182.401 27.0434 182.216 26.5204C182.03 25.9935 181.655 25.5983 181.114 25.3581C180.546 25.0869 179.974 25.0442 179.414 25.2263C178.854 25.4084 178.429 25.7649 178.147 26.2996L171.752 40.2668L165.284 26.2802C165.014 25.7649 164.604 25.4084 164.071 25.2263C163.53 25.0404 162.993 25.0869 162.483 25.3581C161.915 25.6293 161.525 26.0206 161.328 26.5281C161.127 27.0434 161.146 27.5704 161.393 28.0973L169.639 45.5321L169.643 45.5282Z" fill="#2F455C"/>
<path d="M188.278 47.0315C188.962 47.0315 189.526 46.8068 189.951 46.3651C190.372 45.9273 190.588 45.3733 190.588 44.7146V27.3689C190.588 26.6831 190.372 26.1213 189.947 25.6952C189.522 25.269 188.958 25.052 188.278 25.052C187.598 25.052 187.068 25.2651 186.632 25.6913C186.191 26.1175 185.967 26.6831 185.967 27.3689V44.7146C185.967 45.3733 186.191 45.9312 186.628 46.369C187.065 46.8068 187.621 47.0315 188.278 47.0315Z" fill="#2F455C"/>
<path d="M188.278 16.4353C187.493 16.4353 186.806 16.722 186.238 17.2915C185.67 17.8611 185.384 18.5469 185.384 19.3372C185.384 20.1276 185.67 20.8134 186.238 21.3829C186.806 21.9525 187.493 22.2392 188.278 22.2392C189.062 22.2392 189.75 21.9525 190.318 21.3829C190.886 20.8134 191.172 20.1276 191.172 19.3372C191.172 18.5469 190.886 17.8611 190.318 17.2915C189.75 16.722 189.062 16.4353 188.278 16.4353Z" fill="#2F455C"/>
<path d="M201.09 45.7607C202.802 46.7061 204.784 47.1865 206.983 47.1865C208.208 47.1865 209.502 46.9579 210.839 46.5085C212.18 46.0552 213.316 45.4624 214.22 44.7417C214.749 44.3349 215 43.8351 214.969 43.254C214.938 42.696 214.664 42.1885 214.154 41.7352C213.756 41.3981 213.277 41.2315 212.748 41.247C212.23 41.2625 211.739 41.4369 211.299 41.7623C210.808 42.1304 210.151 42.4636 209.344 42.7503C208.54 43.0331 207.748 43.1803 206.983 43.1803C205.569 43.1803 204.301 42.8665 203.219 42.2505C202.134 41.6345 201.272 40.7821 200.658 39.7205C200.31 39.12 200.059 38.4652 199.904 37.76H214.289C214.892 37.76 215.402 37.5663 215.8 37.1828C216.202 36.7953 216.407 36.3033 216.407 35.7182C216.407 33.6261 216.009 31.747 215.228 30.1352C214.44 28.5118 213.281 27.2216 211.782 26.2957C210.282 25.3697 208.474 24.9009 206.399 24.9009C204.324 24.9009 202.416 25.3813 200.793 26.3305C199.17 27.2798 197.88 28.6048 196.96 30.2747C196.044 31.9407 195.577 33.8895 195.577 36.0669C195.577 38.2443 196.071 40.1583 197.041 41.8243C198.011 43.4942 199.375 44.8192 201.094 45.7646L201.09 45.7607ZM200.515 32.363C201.029 31.2937 201.79 30.4452 202.783 29.8291C203.776 29.2131 204.993 28.9031 206.399 28.9031C207.624 28.9031 208.675 29.186 209.525 29.7439C210.375 30.3057 211.044 31.0806 211.507 32.0492C211.789 32.6381 211.994 33.2851 212.118 33.9747H199.958C200.09 33.4052 200.275 32.8667 200.519 32.363H200.515Z" fill="#2F455C"/>
<path d="M236.008 31.7044C236.518 32.5839 236.781 33.7462 236.781 35.1643V44.7534C236.781 45.4121 237.005 45.97 237.442 46.4078C237.878 46.8456 238.435 47.0703 239.091 47.0703C239.748 47.0703 240.305 46.8495 240.741 46.4078C241.178 45.97 241.402 45.4121 241.402 44.7534V35.1643C241.402 32.9597 240.977 31.0729 240.135 29.5464C239.292 28.016 238.122 26.8382 236.661 26.0439C235.204 25.2535 233.539 24.8545 231.704 24.8545C229.868 24.8545 228.338 25.2497 226.92 26.0245C226.372 26.3267 225.869 26.6677 225.406 27.0551C225.348 26.5088 225.139 26.0517 224.78 25.6913C224.355 25.2652 223.791 25.0482 223.111 25.0482C222.43 25.0482 221.901 25.2613 221.465 25.6875C221.024 26.1137 220.8 26.6793 220.8 27.3651V44.7496C220.8 45.4082 221.024 45.9661 221.461 46.4039C221.897 46.8417 222.454 47.0665 223.111 47.0665C223.767 47.0665 224.359 46.8417 224.784 46.4001C225.205 45.9623 225.421 45.4082 225.421 44.7496V33.7579C225.421 32.8706 225.665 32.0725 226.14 31.3945C226.623 30.7048 227.287 30.143 228.118 29.7285C228.949 29.31 229.895 29.1008 230.927 29.1008C232.063 29.1008 233.079 29.3178 233.949 29.7479C234.806 30.1702 235.498 30.8288 236.008 31.7044Z" fill="#2F455C"/>
<path d="M267.641 36.0204V18.2446C267.641 17.5589 267.425 16.9971 267 16.5709C266.575 16.1447 266.011 15.9277 265.331 15.9277C264.651 15.9277 264.121 16.1408 263.685 16.567C263.244 16.9932 263.02 17.5589 263.02 18.2446V27.9035C262.224 27.0822 261.289 26.4041 260.227 25.8811C258.894 25.2263 257.418 24.8931 255.845 24.8931C253.898 24.8931 252.128 25.389 250.579 26.3654C249.033 27.3417 247.801 28.6784 246.908 30.3483C246.019 32.0104 245.567 33.9205 245.567 36.0204C245.567 38.1204 246.058 40.0421 247.032 41.7197C248.001 43.4012 249.338 44.7456 251 45.7181C252.661 46.6906 254.555 47.1865 256.626 47.1865C258.697 47.1865 260.582 46.6906 262.236 45.7181C263.882 44.7456 265.211 43.4012 266.181 41.7197C267.151 40.0382 267.645 38.1204 267.645 36.0204H267.641ZM262.321 39.6081C261.753 40.6697 260.969 41.5105 259.991 42.1149C259.013 42.7154 257.881 43.0215 256.626 43.0215C255.37 43.0215 254.269 42.7154 253.28 42.1149C252.283 41.5105 251.487 40.6697 250.911 39.6081C250.331 38.5465 250.038 37.3416 250.038 36.0243C250.038 34.707 250.331 33.4788 250.911 32.4443C251.487 31.4099 252.286 30.5769 253.283 29.9725C254.276 29.3719 255.405 29.0659 256.629 29.0659C257.854 29.0659 259.017 29.3719 259.995 29.9725C260.976 30.5769 261.765 31.406 262.329 32.4443C262.897 33.4827 263.183 34.6876 263.183 36.0282C263.183 37.3687 262.897 38.5504 262.329 39.6159L262.321 39.6081Z" fill="#2F455C"/>
<path d="M291.578 30.267C290.631 28.5971 289.318 27.272 287.664 26.3228C286.014 25.3775 284.101 24.897 281.98 24.897C279.859 24.897 277.908 25.3775 276.258 26.3228C274.608 27.272 273.29 28.5971 272.344 30.267C271.401 31.933 270.922 33.8818 270.922 36.0631C270.922 38.2444 271.401 40.1506 272.344 41.8205C273.286 43.4903 274.604 44.8154 276.258 45.7646C277.908 46.71 279.832 47.1904 281.98 47.1904C284.128 47.1904 286.053 46.71 287.702 45.7646C289.352 44.8154 290.662 43.4903 291.597 41.8205C292.528 40.1545 293 38.2173 293 36.067C293 33.9167 292.521 31.9368 291.578 30.2708V30.267ZM287.702 39.6857C287.15 40.7201 286.373 41.5415 285.392 42.1304C284.41 42.7193 283.263 43.0177 281.984 43.0177C280.705 43.0177 279.557 42.7193 278.576 42.1304C277.595 41.5415 276.81 40.7163 276.246 39.6818C275.678 38.6434 275.392 37.4269 275.392 36.0592C275.392 34.6915 275.678 33.4672 276.246 32.4134C276.81 31.3673 277.595 30.5382 278.576 29.9454C279.554 29.3565 280.701 29.0582 281.984 29.0582C283.267 29.0582 284.41 29.3565 285.392 29.9454C286.373 30.5343 287.15 31.3634 287.699 32.4095C288.255 33.4634 288.537 34.6877 288.537 36.0553C288.537 37.423 288.255 38.6434 287.702 39.6818V39.6857Z" fill="#2F455C"/>
<path d="M134.362 60.1385C133.056 59.538 131.595 59.2319 130.026 59.2319C127.932 59.2319 126.043 59.7123 124.42 60.6616C122.793 61.6108 121.499 62.9436 120.568 64.6251C119.637 66.3027 119.165 68.2476 119.165 70.3979C119.165 72.5482 119.644 74.408 120.587 76.074C121.53 77.74 122.851 79.0805 124.517 80.053C126.178 81.0255 128.098 81.5214 130.22 81.5214C133.09 81.5214 135.521 80.6148 137.449 78.8132C137.886 78.3754 138.071 77.8717 138.009 77.3138C137.947 76.7752 137.658 76.287 137.155 75.8725C136.75 75.5277 136.274 75.3804 135.749 75.4269C135.243 75.4734 134.752 75.6865 134.288 76.0662C133.751 76.504 133.152 76.8333 132.511 77.0426C131.862 77.2518 131.089 77.3564 130.22 77.3564C128.914 77.3564 127.755 77.0503 126.777 76.4498C125.796 75.8454 125.019 75.0162 124.466 73.9818C123.914 72.9434 123.632 71.7385 123.632 70.3941C123.632 68.9722 123.906 67.7285 124.451 66.6863C124.988 65.6557 125.745 64.8382 126.7 64.2609C127.654 63.6836 128.775 63.393 130.03 63.393C131.819 63.393 133.334 64.04 134.539 65.3225C134.945 65.7332 135.409 65.9927 135.911 66.0935C136.44 66.202 136.935 66.0974 137.376 65.7835C137.905 65.4 138.237 64.9428 138.357 64.4236C138.484 63.8734 138.33 63.3426 137.897 62.8467C136.862 61.6495 135.672 60.7352 134.366 60.1308L134.362 60.1385Z" fill="#2F455C"/>
<path d="M159.268 60.6577C157.618 59.7123 155.706 59.2319 153.584 59.2319C151.463 59.2319 149.512 59.7123 147.862 60.6577C146.208 61.6069 144.895 62.932 143.948 64.6018C143.005 66.2678 142.526 68.2205 142.526 70.3979C142.526 72.5754 143.005 74.4893 143.948 76.1553C144.891 77.8252 146.208 79.1502 147.862 80.0995C149.512 81.0448 151.436 81.5252 153.584 81.5252C155.733 81.5252 157.657 81.0448 159.307 80.0995C160.957 79.1502 162.27 77.8252 163.201 76.1553C164.133 74.4893 164.604 72.5521 164.604 70.4018C164.604 68.2515 164.125 66.2756 163.182 64.6057C162.236 62.9358 160.922 61.6108 159.268 60.6616V60.6577ZM159.303 74.0244C158.75 75.055 157.974 75.8802 156.992 76.4691C156.011 77.0581 154.867 77.3564 153.584 77.3564C152.302 77.3564 151.158 77.0581 150.176 76.4691C149.195 75.8802 148.411 75.055 147.847 74.0205C147.279 72.9822 146.993 71.7656 146.993 70.3979C146.993 69.0303 147.279 67.806 147.847 66.7521C148.411 65.706 149.195 64.8769 150.176 64.2841C151.158 63.6952 152.302 63.3969 153.584 63.3969C154.867 63.3969 156.011 63.6952 156.992 64.2841C157.974 64.873 158.75 65.7022 159.299 66.7483C159.855 67.7982 160.137 69.0264 160.137 70.3941C160.137 71.7617 159.855 72.9822 159.303 74.0205V74.0244Z" fill="#2F455C"/>
<path d="M155.802 48.9998L151.985 52.8277C151.618 53.2268 151.432 53.746 151.432 54.3775C151.432 55.0361 151.652 55.5941 152.093 56.0319C152.529 56.4697 153.086 56.6944 153.743 56.6944C154.4 56.6944 154.91 56.4774 155.335 56.0512L159.09 52.2853C159.341 52.0645 159.515 51.8088 159.612 51.5182C159.701 51.2508 159.743 50.968 159.743 50.6736C159.743 50.0188 159.531 49.457 159.11 49.0076C158.685 48.5504 158.12 48.3179 157.433 48.3179C156.799 48.3179 156.25 48.5465 155.802 48.9998Z" fill="#2F455C"/>
<path d="M188.529 50.2666C187.876 50.2666 187.32 50.4797 186.883 50.9058C186.443 51.332 186.218 51.8977 186.218 52.5835V62.2424C185.422 61.421 184.487 60.743 183.425 60.2199C182.088 59.5651 180.616 59.2319 179.043 59.2319C177.096 59.2319 175.326 59.7279 173.777 60.7042C172.231 61.6806 170.999 63.0211 170.106 64.6871C169.217 66.3531 168.765 68.2593 168.765 70.3593C168.765 72.4592 169.256 74.3809 170.23 76.0585C171.2 77.74 172.537 79.0844 174.198 80.0569C175.859 81.0294 177.753 81.5253 179.824 81.5253C181.895 81.5253 183.784 81.0333 185.434 80.0569C187.08 79.0844 188.409 77.74 189.379 76.0585C190.349 74.377 190.843 72.4592 190.843 70.3593V52.5835C190.843 51.8977 190.627 51.3359 190.202 50.9097C189.777 50.4835 189.213 50.2666 188.533 50.2666H188.529ZM185.519 73.947C184.951 75.0085 184.167 75.8493 183.189 76.4537C182.208 77.0542 181.076 77.3603 179.824 77.3603C178.572 77.3603 177.467 77.0542 176.478 76.4537C175.481 75.8493 174.685 75.0047 174.109 73.947C173.53 72.8854 173.236 71.6766 173.236 70.3631C173.236 69.0497 173.53 67.8176 174.109 66.7832C174.685 65.7487 175.485 64.9157 176.482 64.3113C177.475 63.7108 178.603 63.4047 179.828 63.4047C181.052 63.4047 182.215 63.7108 183.193 64.3113C184.174 64.9157 184.959 65.7448 185.527 66.7793C186.095 67.8176 186.381 69.0226 186.381 70.3631C186.381 71.7037 186.095 72.8854 185.527 73.9508L185.519 73.947Z" fill="#2F455C"/>
<path d="M198.567 50.7742C197.779 50.7742 197.095 51.0609 196.527 51.6304C195.959 52.2 195.673 52.8857 195.673 53.6761C195.673 54.4665 195.959 55.1523 196.527 55.7218C197.095 56.2913 197.779 56.578 198.567 56.578C199.355 56.578 200.039 56.2913 200.607 55.7218C201.175 55.1523 201.461 54.4665 201.461 53.6761C201.461 52.8857 201.175 52.2 200.607 51.6304C200.039 51.0609 199.355 50.7742 198.567 50.7742Z" fill="#2F455C"/>
<path d="M198.567 59.387C197.91 59.387 197.358 59.6001 196.921 60.0263C196.481 60.4525 196.257 61.0181 196.257 61.7039V79.0497C196.257 79.7083 196.481 80.2662 196.917 80.704C197.354 81.1418 197.91 81.3666 198.567 81.3666C199.224 81.3666 199.815 81.1418 200.24 80.7002C200.662 80.2624 200.878 79.7083 200.878 79.0497V61.7039C200.878 61.0181 200.662 60.4564 200.236 60.0302C199.811 59.604 199.247 59.387 198.567 59.387Z" fill="#2F455C"/>
<path d="M225.858 64.6018C224.911 62.932 223.597 61.6069 221.944 60.6577C220.294 59.7123 218.381 59.2319 216.26 59.2319C214.139 59.2319 212.187 59.7123 210.538 60.6577C208.884 61.6069 207.57 62.932 206.623 64.6018C205.681 66.2678 205.202 68.2205 205.202 70.3979C205.202 72.5754 205.646 74.4816 206.523 76.1437C207.4 77.8136 208.625 79.1386 210.159 80.0917C211.693 81.041 213.486 81.5252 215.483 81.5252C217.33 81.5252 218.988 81.0409 220.41 80.0878C221.337 79.4641 222.141 78.6814 222.813 77.7438V78.5497C222.813 80.177 222.512 81.564 221.92 82.6837C221.333 83.7918 220.529 84.6364 219.54 85.2021C218.547 85.7677 217.442 86.0544 216.264 86.0544C214.969 86.0544 213.802 85.8142 212.786 85.3454C211.774 84.8766 210.928 84.2102 210.267 83.3811C209.908 82.9007 209.429 82.5946 208.845 82.4784C208.25 82.3544 207.678 82.4784 207.137 82.8426C206.65 83.1796 206.349 83.6291 206.241 84.1831C206.133 84.7449 206.276 85.2912 206.678 85.8142C207.817 87.2516 209.232 88.3597 210.881 89.1036C212.524 89.8475 214.309 90.2233 216.186 90.2233C218.362 90.2233 220.309 89.708 221.975 88.6929C223.636 87.6778 224.95 86.2947 225.881 84.5744C226.808 82.8581 227.28 80.9208 227.28 78.8248V70.1655C227.245 68.0849 226.77 66.2136 225.858 64.6096V64.6018ZM221.982 74.0244C221.43 75.055 220.653 75.8802 219.672 76.4691C218.69 77.0581 217.547 77.3564 216.264 77.3564C214.981 77.3564 213.837 77.0581 212.856 76.4691C211.874 75.8802 211.09 75.055 210.526 74.0205C209.958 72.9822 209.672 71.7656 209.672 70.3979C209.672 69.0303 209.958 67.806 210.526 66.7521C211.09 65.706 211.874 64.8769 212.856 64.2841C213.837 63.6952 214.981 63.3969 216.264 63.3969C217.547 63.3969 218.69 63.6952 219.672 64.2841C220.653 64.873 221.43 65.7022 221.978 66.7483C222.535 67.7982 222.817 69.0264 222.817 70.3941C222.817 71.7617 222.535 72.9822 221.982 74.0205V74.0244Z" fill="#2F455C"/>
<path d="M248.187 60.6577C246.537 59.7123 244.624 59.2319 242.503 59.2319C240.382 59.2319 238.431 59.7123 236.781 60.6577C235.131 61.6069 233.813 62.932 232.867 64.6018C231.924 66.2678 231.445 68.2205 231.445 70.3979C231.445 72.5754 231.924 74.4893 232.867 76.1553C233.809 77.8252 235.127 79.1502 236.781 80.0995C238.431 81.0448 240.355 81.5252 242.503 81.5252C244.651 81.5252 246.576 81.0448 248.226 80.0995C249.875 79.1502 251.189 77.8252 252.12 76.1553C253.051 74.4893 253.523 72.5521 253.523 70.4018C253.523 68.2515 253.044 66.2756 252.101 64.6057C251.154 62.9358 249.841 61.6108 248.187 60.6616V60.6577ZM248.222 74.0244C247.669 75.055 246.893 75.8802 245.911 76.4691C244.93 77.0581 243.786 77.3564 242.503 77.3564C241.22 77.3564 240.077 77.0581 239.095 76.4691C238.114 75.8802 237.329 75.055 236.765 74.0205C236.197 72.9822 235.911 71.7656 235.911 70.3979C235.911 69.0303 236.197 67.806 236.765 66.7521C237.329 65.706 238.114 64.8769 239.095 64.2841C240.077 63.6952 241.22 63.3969 242.503 63.3969C243.786 63.3969 244.93 63.6952 245.911 64.2841C246.893 64.873 247.669 65.7022 248.218 66.7483C248.774 67.7982 249.056 69.0264 249.056 70.3941C249.056 71.7617 248.774 72.9822 248.222 74.0205V74.0244Z" fill="#2F455C"/>
<path d="M259.408 68.9142C258.724 68.9142 258.129 68.6623 257.626 68.1587C257.124 67.655 256.873 67.0622 256.873 66.3726C256.873 65.6829 257.124 65.0514 257.626 64.5516C258.129 64.0479 258.724 63.7961 259.408 63.7961C260.092 63.7961 260.717 64.0479 261.204 64.5516C261.695 65.0553 261.938 65.6636 261.938 66.3726C261.938 67.0816 261.695 67.655 261.204 68.1587C260.714 68.6623 260.115 68.9142 259.408 68.9142ZM258.786 85.8841C258.492 85.8841 258.264 85.7872 258.105 85.5896C257.947 85.392 257.866 85.1712 257.866 84.9271C257.866 84.4351 258.005 84.0128 258.287 83.6563C258.569 83.2999 258.851 82.9124 259.133 82.4979C259.415 82.0794 259.554 81.5758 259.554 80.9868C259.554 80.5684 259.458 80.2275 259.261 79.9562C259.064 79.685 258.843 79.4371 258.6 79.2007C258.357 78.9683 258.136 78.7048 257.939 78.4104C257.742 78.1159 257.646 77.7478 257.646 77.3062C257.646 76.6436 257.866 76.0896 258.306 75.6479C258.747 75.2062 259.346 74.9854 260.103 74.9854C261.034 74.9854 261.738 75.3031 262.213 75.9424C262.692 76.5816 262.943 77.4379 262.966 78.5188C262.966 79.3054 262.839 80.1267 262.58 80.9868C262.325 81.847 261.981 82.6451 261.552 83.3812C261.123 84.1174 260.663 84.7179 260.177 85.1867C259.686 85.6516 259.222 85.888 258.782 85.888L258.786 85.8841Z" fill="#6FC0AB"/>
<path d="M29.4657 45.7723L21.6917 45.7413C21.738 45.9156 21.7767 46.09 21.8037 46.2721C21.8849 46.8494 21.854 47.415 21.7303 47.9497L29.431 47.9807C29.3962 47.6824 29.3769 47.3763 29.373 47.0702C29.3691 46.6285 29.4078 46.1985 29.4696 45.7723H29.4657ZM80.542 75.1209C79.7963 74.9388 79.0892 74.6676 78.4362 74.3034C73.6837 83.5904 66.6553 92.7844 58.2553 96.2791C55.8906 97.2632 53.4989 97.7552 51.0956 97.7746C50.9642 98.5534 50.7208 99.2895 50.3924 99.983C50.5817 99.9869 50.7672 99.9985 50.9565 99.9985C53.6882 99.9985 56.4084 99.4406 59.0976 98.3209C62.2699 97.0036 72.2618 91.7034 80.542 75.1248V75.1209ZM32.2748 84.7372C29.2069 76.1438 31.2818 64.7375 34.9524 54.9624C34.2337 54.7028 33.5614 54.3502 32.9471 53.9163C26.2356 71.2388 29.0407 82.2382 30.1999 85.485C31.2663 88.476 32.8505 91.0409 34.9292 93.1796C35.219 92.4512 35.6131 91.777 36.0845 91.1649C34.4347 89.3439 33.1557 87.2052 32.2748 84.7411V84.7372ZM46.2271 47.8296C57.3589 48.5657 67.3354 53.1337 76.0252 61.483C76.4966 60.9135 77.0414 60.4098 77.6441 59.9797C68.4868 51.1306 57.9423 46.3224 46.146 45.6057C46.2155 46.0357 46.2658 46.4697 46.2696 46.9191C46.2696 47.2252 46.2581 47.5274 46.2271 47.8296ZM68.6066 69.0226C68.6066 69.0575 68.6027 69.0924 68.6027 69.1272L74.2671 68.6817C74.1473 68.1276 74.0817 67.5542 74.0778 66.9653C74.0778 66.8026 74.0894 66.6399 74.0971 66.4771L68.4095 66.9266C68.5216 67.6123 68.595 68.3058 68.6027 69.0226H68.6066ZM47.2588 57.535L43.7891 52.9942C43.2674 53.5134 42.6801 53.9667 42.0387 54.3347L45.5162 58.8872C46.061 58.3912 46.6406 57.9418 47.2588 57.535ZM48.1938 81.3239L45.1916 88.2087C45.9064 88.4218 46.5749 88.7356 47.197 89.1192L50.2069 82.2111C49.5076 81.967 48.8314 81.6764 48.19 81.3239H48.1938ZM71.3654 19.744V20.608L72.6095 20.6041V20.0075C72.6675 20.0229 72.7254 20.0307 72.7834 20.0462C84.9468 23.0837 92.35 35.4315 89.3207 47.6281C88.7643 49.8714 86.5001 51.2352 84.2629 50.6773L48.3175 41.7003C46.0803 41.1424 44.7202 38.872 45.2766 36.6287C48.1861 24.9086 59.6772 17.5976 71.3654 19.744ZM80.4338 43.4089C82.2498 43.7033 83.9615 42.4635 84.2552 40.6426C84.5488 38.8216 83.3124 37.1052 81.4964 36.8108C79.6804 36.5163 77.9687 37.7561 77.675 39.5771C77.3814 41.3981 78.6178 43.1144 80.4338 43.4089ZM62.7103 34.2304C62.2699 36.9735 64.1284 39.5539 66.864 39.9955C69.5996 40.4372 72.1729 38.5736 72.6134 35.8305C73.0539 33.0875 71.1954 30.5071 68.4598 30.0654C65.7241 29.6237 63.1508 31.4873 62.7103 34.2304ZM72.6095 20.6041V20.0075L72.5902 15.6061C72.3932 15.6642 72.1845 15.7069 71.9681 15.7069C71.7518 15.7069 71.547 15.6681 71.3461 15.61L71.3615 19.744V20.608L72.6057 20.6041H72.6095ZM72.5902 15.6061C73.5214 15.331 74.2014 14.4748 74.1976 13.452C74.1937 12.2121 73.1852 11.2125 71.9488 11.2164C70.7124 11.2203 69.7155 12.2315 69.7194 13.4713C69.7232 14.4942 70.411 15.3427 71.3461 15.61C71.5431 15.6681 71.7518 15.7069 71.9681 15.7069C72.1845 15.7069 72.3893 15.6642 72.5902 15.6061ZM29.9255 26.7644C30.0415 27.1674 30.0685 27.5703 30.0221 27.9616C33.2755 28.0352 36.5752 25.8113 37.4523 22.6808C37.9392 21.1543 35.9184 20.0191 34.8751 21.2628C32.8428 23.9632 28.635 24.7575 27.3406 21.0962C26.9852 20.0811 26.9426 18.8723 27.2247 17.5976C27.3986 16.9893 27.2054 16.3151 26.6606 15.9277C25.9883 15.4434 25.0494 15.6022 24.5702 16.2764C22.5958 18.8994 22.8508 22.9249 24.9334 25.4742C25.2812 25.1294 25.7062 24.8543 26.2085 24.7071C27.8043 24.2461 29.4696 25.1682 29.9294 26.7683L29.9255 26.7644ZM68.4095 66.9266C67.3392 60.2781 61.5821 55.2258 54.6619 55.284C51.9263 55.3072 49.3916 56.1363 47.2588 57.5311C46.6406 57.9341 46.061 58.3874 45.5162 58.8833C42.6956 61.4481 40.9298 65.1482 40.9646 69.2667C41.0109 74.4817 43.9282 78.9953 48.1938 81.3239C48.8352 81.6726 49.5114 81.9632 50.2108 82.2111C51.6829 82.7303 53.2594 83.0209 54.9054 83.0054C62.5017 82.9395 68.6104 76.7366 68.5989 69.1311C68.5989 69.0962 68.6027 69.0614 68.6027 69.0265C68.595 68.3136 68.5177 67.6162 68.4095 66.9304V66.9266ZM76.0252 61.483C74.8931 62.8546 74.186 64.5864 74.0971 66.4771C74.0894 66.6399 74.0739 66.7987 74.0778 66.9653C74.0817 67.5542 74.1473 68.1276 74.2671 68.6817C74.7849 71.107 76.342 73.1372 78.4401 74.3034C79.0931 74.6676 79.8002 74.9427 80.5459 75.1209C81.2066 75.2798 81.8944 75.3728 82.6053 75.365C87.2729 75.3224 91.0247 71.4945 90.9822 66.8142C90.9397 62.1339 87.1222 58.3719 82.4546 58.4145C80.6618 58.43 79.0042 59.0111 77.6441 59.9759C77.0414 60.4059 76.4966 60.9096 76.0252 61.4791V61.483ZM37.8928 55.4699C39.4036 55.4583 40.8177 55.0399 42.0387 54.3347C42.6801 53.9628 43.2674 53.5134 43.7891 52.9942C45.1375 51.642 46.0339 49.8404 46.231 47.8335C46.2619 47.5351 46.2774 47.2329 46.2735 46.923C46.2696 46.4735 46.2194 46.0396 46.1499 45.6096C45.4814 41.5608 41.9692 38.4845 37.746 38.5233C33.5189 38.562 30.0531 41.708 29.4657 45.7762C29.4039 46.2023 29.3653 46.6324 29.3691 47.0741C29.3691 47.384 29.3923 47.6862 29.4271 47.9846C29.7092 50.4371 31.0422 52.5641 32.9509 53.9163C33.5653 54.3502 34.2376 54.7028 34.9563 54.9624C35.8759 55.2956 36.8612 55.4816 37.8928 55.4699ZM51.227 96.2558C51.1999 93.2299 49.5926 90.5953 47.2008 89.1192C46.5788 88.7356 45.9103 88.4218 45.1955 88.2087C44.4073 87.9724 43.5688 87.8484 42.7033 87.8561C40.0063 87.8794 37.6185 89.1734 36.0884 91.161C35.617 91.7732 35.2267 92.4473 34.9331 93.1757C34.5313 94.1753 34.3149 95.264 34.3226 96.4069C34.3651 101.087 38.1826 104.849 42.8501 104.807C46.1885 104.776 49.0478 102.807 50.3962 99.9791C50.7247 99.2895 50.9642 98.5495 51.0995 97.7707C51.1845 97.2787 51.2347 96.7711 51.227 96.2558ZM26.734 30.5923C25.9767 30.5149 25.2812 30.1468 24.7789 29.5772L18.1447 42.4558C18.8865 42.5953 19.5704 42.9168 20.1461 43.3818L26.734 30.5962V30.5923ZM21.7999 46.2721C21.7728 46.09 21.7342 45.9156 21.6878 45.7413C21.4328 44.7843 20.8803 43.9668 20.15 43.3779C19.5743 42.913 18.8904 42.5914 18.1485 42.4519C17.6733 42.3628 17.1748 42.3434 16.6687 42.417C14.1881 42.7735 12.4687 45.0788 12.8241 47.5661C13.1796 50.0535 15.4786 51.7776 17.9592 51.4212C19.8641 51.1461 21.3169 49.7242 21.7264 47.9497C21.8501 47.415 21.8849 46.8494 21.7999 46.2721ZM27.87 30.4916C29.0639 30.1468 29.8792 29.1201 30.0221 27.9577C30.0685 27.5664 30.0415 27.1635 29.9255 26.7605C29.4657 25.1604 27.8004 24.2383 26.2047 24.6994C25.7024 24.8466 25.2773 25.1178 24.9296 25.4665C24.1761 26.2181 23.8322 27.3378 24.1491 28.4304C24.2766 28.8682 24.4968 29.2479 24.7789 29.5734C25.2773 30.1468 25.9767 30.511 26.734 30.5885C27.1049 30.6272 27.4913 30.6001 27.87 30.4916ZM17.2753 9.15136C17.198 8.90727 17.2096 8.63606 17.3332 8.3881C17.4569 8.14401 17.6694 7.96966 17.9128 7.89217C18.0944 7.83406 18.2953 7.82631 18.4847 7.87668C18.5504 7.89605 18.6122 7.91929 18.674 7.95029L20.49 8.87627L20.8146 8.23699C20.9266 8.01615 21.0425 7.79919 21.1662 7.58609C21.2048 7.51636 21.2512 7.44662 21.2898 7.37688C21.371 7.2374 21.456 7.09792 21.541 6.95844C21.5951 6.87708 21.6492 6.79571 21.7033 6.71435C21.7844 6.59425 21.8617 6.47414 21.9467 6.35791C22.0085 6.27267 22.0703 6.19131 22.1322 6.10607C22.2133 5.99759 22.2944 5.8891 22.3756 5.78062C22.4413 5.69538 22.5108 5.61402 22.5804 5.53266C22.6615 5.43192 22.7465 5.33119 22.8315 5.23433C22.9049 5.15296 22.9783 5.0716 23.0518 4.99024C23.1368 4.89725 23.2218 4.80427 23.3106 4.71128C23.3879 4.62992 23.4652 4.55243 23.5425 4.47494C23.6313 4.38583 23.7163 4.3006 23.8091 4.21536C23.8902 4.13787 23.9713 4.06038 24.0564 3.98677C24.1452 3.9054 24.2341 3.82404 24.3268 3.74656C24.4118 3.67294 24.5007 3.59933 24.5896 3.52571C24.6823 3.4521 24.7712 3.37849 24.8639 3.30487C24.9566 3.23513 25.0455 3.16152 25.1382 3.09565C25.231 3.02591 25.3237 2.96005 25.4164 2.89418C25.513 2.82444 25.6096 2.75858 25.7062 2.69272C25.799 2.63072 25.8917 2.56873 25.9844 2.51062C26.0849 2.44475 26.1853 2.37889 26.2897 2.3169C26.3824 2.26266 26.4751 2.20841 26.5679 2.15417C26.676 2.09218 26.7804 2.03019 26.8924 1.9682C26.9813 1.91783 27.0702 1.87521 27.159 1.82872C27.2749 1.7706 27.387 1.70861 27.5068 1.6505C27.5879 1.61175 27.6729 1.57301 27.7579 1.53426C27.8816 1.47615 28.0091 1.41803 28.1327 1.36379C28.2023 1.3328 28.2718 1.30955 28.3375 1.27856C28.4805 1.22044 28.6273 1.15845 28.7703 1.10421C28.7857 1.10033 28.7973 1.09646 28.8128 1.08871C29.601 0.794255 30.4124 0.569538 31.2393 0.414562C31.2779 0.406813 31.3165 0.399064 31.3552 0.391315C31.5252 0.360319 31.6991 0.333199 31.8729 0.309952C31.927 0.302204 31.9772 0.294454 32.0313 0.286706C32.1975 0.263459 32.3675 0.247962 32.5336 0.22859C32.5916 0.224716 32.6496 0.216966 32.7075 0.209217C32.8737 0.193719 33.0398 0.185972 33.206 0.174349C33.2678 0.174349 33.3296 0.1666 33.3914 0.1666C33.5576 0.158851 33.7237 0.15885 33.8899 0.154976C33.9517 0.154976 34.0135 0.154976 34.0753 0.154976C34.2415 0.154976 34.4076 0.162725 34.5738 0.1666C34.6356 0.1666 34.6974 0.170474 34.7592 0.174349C34.9254 0.182098 35.0915 0.193719 35.2615 0.209217C35.3233 0.213091 35.3852 0.220841 35.4431 0.22859C35.6131 0.244088 35.7793 0.267333 35.9493 0.286706C36.0072 0.294454 36.0691 0.302203 36.127 0.313826C36.297 0.340947 36.467 0.368068 36.6409 0.399064C36.695 0.410687 36.7491 0.422311 36.8032 0.43006C36.9771 0.464929 37.1509 0.499798 37.3248 0.542417C37.3751 0.55404 37.4214 0.565663 37.4716 0.577286C37.6494 0.619905 37.831 0.666399 38.0087 0.720641C38.0512 0.732264 38.0899 0.743886 38.1324 0.759384C38.3178 0.813626 38.5033 0.871742 38.6888 0.933733C38.7158 0.941482 38.7429 0.953105 38.7699 0.960854C38.967 1.03059 39.1679 1.10421 39.3649 1.18169C39.3843 1.06934 39.4229 0.956979 39.4693 0.848495C39.477 0.832998 39.4847 0.813625 39.4924 0.798128C39.5465 0.689644 39.6122 0.585035 39.6934 0.488175C39.7552 0.418436 39.8247 0.356445 39.8943 0.302204C39.9175 0.282831 39.9407 0.271208 39.9677 0.251836C40.0179 0.216966 40.0682 0.185972 40.1223 0.158851C40.1532 0.143353 40.1802 0.131729 40.2111 0.120106C40.2613 0.0968593 40.3154 0.0774881 40.3695 0.0619905C40.4005 0.0542417 40.4314 0.0426186 40.4623 0.0348697C40.5164 0.0232465 40.5743 0.0154978 40.6323 0.007749C40.6632 0.007749 40.6902 0 40.7212 0C40.7907 0 40.8564 1.77417e-07 40.9259 0.007749C40.9453 0.007749 40.9646 0.007749 40.98 0.007749C41.065 0.0193722 41.15 0.0387434 41.235 0.0658643C41.2582 0.0736131 41.2775 0.0852362 41.2969 0.092985C41.3471 0.112357 41.3973 0.127855 41.4437 0.154976C41.4514 0.15885 41.4591 0.166599 41.4669 0.170474C41.5635 0.220841 41.6562 0.282831 41.7412 0.356445C42.344 0.887239 42.4019 1.80935 41.8726 2.41376C41.861 2.42538 41.8494 2.43313 41.8378 2.44475C42.0155 2.55711 42.1933 2.67722 42.3633 2.79732C42.3865 2.81282 42.4097 2.82832 42.4328 2.84382C42.5913 2.95617 42.7497 3.07241 42.9042 3.19251C42.939 3.21964 42.9738 3.24288 43.0086 3.27C43.1554 3.38236 43.2983 3.50247 43.4374 3.6187C43.4761 3.65357 43.5147 3.68456 43.5534 3.71943C43.6886 3.83567 43.82 3.95577 43.9513 4.07588C43.9938 4.11462 44.0325 4.15337 44.075 4.19211C44.2025 4.31222 44.3223 4.43232 44.4459 4.55631C44.4884 4.59892 44.5309 4.64154 44.5734 4.68804C44.6893 4.81202 44.8052 4.93212 44.9173 5.05998C44.9598 5.10647 45.0023 5.15297 45.0409 5.19946C45.1491 5.32344 45.2573 5.45129 45.3616 5.58302C45.4003 5.63339 45.4428 5.68376 45.4814 5.73025C45.5857 5.86198 45.6862 5.98984 45.7828 6.12544C45.8214 6.17581 45.8562 6.23005 45.8949 6.28042C45.9914 6.41602 46.088 6.54775 46.1769 6.68723C46.2117 6.74147 46.2465 6.79184 46.2812 6.84608C46.3701 6.98556 46.459 7.12504 46.544 7.26452C46.5749 7.31488 46.6058 7.36913 46.6367 7.42337C46.7217 7.56672 46.8067 7.71395 46.884 7.86118C46.911 7.90767 46.9342 7.95804 46.9613 8.00453C47.0424 8.15951 47.1236 8.31061 47.197 8.46946C47.2163 8.5082 47.2317 8.54695 47.2511 8.58569C47.3322 8.75229 47.4095 8.91889 47.4829 9.08936C47.4829 9.09711 47.4868 9.10099 47.4906 9.10874C47.7456 9.70152 47.9581 10.3098 48.132 10.9297C48.1359 10.9452 48.1436 10.9646 48.1475 10.9801C48.19 11.1273 48.2248 11.2784 48.2595 11.4256C48.2788 11.4992 48.2982 11.5767 48.3136 11.6503C48.3445 11.7821 48.3677 11.9177 48.3948 12.0494C48.4141 12.1424 48.4334 12.2354 48.4489 12.3284C48.472 12.4524 48.4914 12.5802 48.5107 12.7081C48.5261 12.8088 48.5416 12.9095 48.557 13.0141C48.5725 13.1343 48.5841 13.2582 48.5995 13.3783C48.6111 13.4868 48.6227 13.5953 48.6305 13.7038C48.6421 13.8239 48.6459 13.9401 48.6536 14.0602C48.6614 14.1726 48.6652 14.285 48.673 14.4012C48.6768 14.5174 48.6807 14.6336 48.6807 14.7499C48.6807 14.8661 48.6807 14.9823 48.6807 15.0986C48.6807 15.2148 48.6768 15.3272 48.673 15.4434C48.6691 15.5635 48.6652 15.6836 48.6575 15.7998C48.6498 15.9122 48.6421 16.0246 48.6343 16.1369C48.6227 16.257 48.6111 16.381 48.5995 16.5011C48.588 16.6096 48.5764 16.722 48.5609 16.8304C48.5455 16.9544 48.5261 17.0784 48.5068 17.2024C48.4914 17.3109 48.472 17.4193 48.4527 17.524C48.4295 17.6518 48.4064 17.7758 48.3793 17.9036C48.3561 18.0083 48.3368 18.1129 48.3136 18.2175C48.2827 18.3453 48.2518 18.4771 48.217 18.6049C48.19 18.7057 48.1668 18.8064 48.1359 18.9071C48.0972 19.0389 48.0586 19.1745 48.0161 19.3062C47.9852 19.403 47.9581 19.4999 47.9272 19.5968C47.8809 19.7362 47.8306 19.8757 47.7765 20.0152C47.7456 20.1043 47.7147 20.1934 47.68 20.2787C47.6181 20.4336 47.5524 20.5886 47.4868 20.7436C47.4558 20.8133 47.4288 20.8831 47.3979 20.9528C47.2974 21.1775 47.1931 21.3984 47.0811 21.6231L46.7565 22.2624L48.5725 23.1883C48.8159 23.3123 48.9898 23.5254 49.0671 23.7695C49.1443 24.0136 49.1328 24.2848 49.0091 24.5328C48.8855 24.7769 48.673 24.9512 48.4295 25.0287C48.1861 25.1062 47.9156 25.0946 47.6684 24.9706L45.8523 24.0446L19.582 10.6546L17.766 9.72864C17.7042 9.69765 17.6462 9.6589 17.596 9.62016C17.4414 9.49618 17.3294 9.32958 17.2714 9.14748L17.2753 9.15136ZM39.2567 12.6693C38.9631 12.6964 38.7429 12.8475 38.6154 13.0994C38.5226 13.2815 38.5033 13.4713 38.5535 13.6573C38.6038 13.8355 38.7004 13.9789 38.8433 14.0912C38.882 14.1222 38.9245 14.1493 38.967 14.1687C39.0906 14.2307 39.2258 14.2578 39.3688 14.2462L43.5804 13.9517C43.8895 13.9246 44.1213 13.7697 44.2527 13.5101C44.3377 13.3435 44.3995 13.0761 44.2025 12.7119L41.9537 9.10486C41.7837 8.86465 41.5442 8.74067 41.2621 8.74842C40.9723 8.75617 40.7366 8.90339 40.6052 9.16685C40.47 9.43419 40.4816 9.70927 40.6361 9.95723L42.2126 12.4524L39.2529 12.6616L39.2567 12.6693ZM33.0282 11.5302C32.8118 11.7162 32.7152 11.9564 32.7384 12.2276C32.7655 12.5027 32.9162 12.7158 33.1673 12.8437C33.291 12.9057 33.4262 12.9367 33.573 12.9367C33.743 12.9367 33.9015 12.8708 34.0328 12.7507L40.0141 7.48923C40.2961 7.23352 40.3193 6.95457 40.2884 6.76859C40.2227 6.35016 39.8479 6.05958 39.4345 6.09832C39.2761 6.10995 39.1331 6.17194 39.0056 6.27654L33.0321 11.5341L33.0282 11.5302ZM28.7123 6.37728L30.9533 9.95723C31.0267 10.0812 31.1311 10.1781 31.2508 10.2401C31.2933 10.2633 31.3397 10.2788 31.3861 10.2943C31.56 10.3447 31.7377 10.3369 31.9077 10.2749C32.0893 10.2091 32.2323 10.0773 32.3211 9.89524C32.4486 9.64341 32.437 9.37607 32.2864 9.11261L30.7138 6.60199L33.658 6.40827C33.9517 6.3889 34.1758 6.23392 34.311 5.96659C34.4424 5.70313 34.4269 5.42805 34.2608 5.18783C34.0985 4.95537 33.8589 4.83526 33.546 4.83526L29.3151 5.14134C28.9287 5.19558 28.7471 5.4048 28.6621 5.5714C28.5307 5.83099 28.5462 6.10994 28.7084 6.38115L28.7123 6.37728ZM51.9959 1.87134C49.6003 1.87134 47.2511 2.04956 44.9405 2.36339C45.0487 2.46025 45.1607 2.55711 45.265 2.65397L45.2998 2.68496L45.4041 2.78183C45.5471 2.91743 45.6862 3.05304 45.8214 3.19251L45.8446 3.21576L45.9644 3.33974C46.0958 3.47922 46.2271 3.6187 46.3508 3.75818L46.4938 3.9209C46.6174 4.06426 46.741 4.20761 46.8569 4.35096L46.9922 4.52144C47.0463 4.59118 47.0965 4.65704 47.1506 4.72678C48.7425 4.5718 50.3576 4.48657 51.992 4.48657C79.2206 4.48657 101.376 26.6986 101.376 54.0054C101.376 81.3122 79.2244 103.524 51.992 103.524C24.7596 103.524 2.6081 81.3122 2.6081 54.0054C2.6081 37.7832 10.4285 23.3549 22.4915 14.3198L19.9259 13.0141C7.80498 22.5684 0 37.3881 0 54.0093C0 82.7574 23.3261 106.143 51.992 106.143C80.6579 106.143 103.984 82.7535 103.984 54.0093C103.984 25.265 80.6618 1.87521 51.992 1.87521L51.9959 1.87134Z" fill="#6FC0AB"/>
</g>
<defs>
<clipPath id="clip0_2327_20">
<rect width="293" height="107" fill="white"/>
</clipPath>
</defs>
</svg>
